<svg xmlns="http://www.w3.org/2000/svg" width="30" height="710" viewBox="0 0 30 710"><g fill="none" fill-rule="evenodd"><g stroke="#2646FF" transform="translate(6 401)"><path d="M15.1272727,10.8727273 C15.1272727,10.8727273 14.7333333,6.06666667 12.2121212,4.33333333 C9.69090909,2.52121212 4.49090909,2.04848485 1.57575758,5.12121212 C3.62424242,2.52121212 6.38181818,0.0787878788 10.3212121,0.866666667 C14.2606061,1.73333333 17.0181818,5.59393939 17.1757576,12.2121212 L15.1272727,13 C15.1272727,13 15.0484848,19.3030303 10.1636364,19.3030303 C5.27878788,19.3030303 4.72727273,15.3636364 4.72727273,13.4727273 C4.72727273,11.5818182 5.75151515,9.45454545 7.8,9.45454545 C9.84848485,9.45454545 10.6363636,10.8727273 10.7151515,12.5272727 C10.7939394,14.1818182 10.6363636,14.969697 9.84848485,14.969697 C9.06060606,14.969697 8.9030303,13.9454545 8.9030303,13.0787879 C8.9030303,12.2121212 8.27272727,11.6606061 7.72121212,11.6606061 C7.16969697,11.6606061 6.6969697,12.1333333 6.6969697,13.3939394 C6.6969697,14.6545455 7.09090909,17.1757576 9.69090909,17.1757576 C12.2909091,17.1757576 12.9212121,14.4969697 12.9212121,12.1333333 C12.9212121,9.76969697 11.2666667,7.24848485 8.11515152,7.24848485 C4.96363636,7.24848485 2.6,9.53333333 2.6,13.7878788"/><path d="M12.0545455 6.93333333C12.0545455 6.93333333 10.7939394 4.88484848 7.95757576 4.88484848 5.12121212 4.88484848 2.83636364 6.22424242 1.57575758 8.35151515.315151515 10.4787879.236363636 14.7333333.236363636 14.7333333L2.75757576 16.0727273C2.75757576 16.0727273 4.56969697 21.3515152 9.13939394 21.3515152 13.7090909 21.3515152 16.5454545 18.830303 17.0969697 14.8909091M11.6606061 25.6848485C13 25.4484848 14.3393939 24.9757576 15.4424242 24.1878788"/><path d="M17.4909091,19.9333333 C17.4909091,19.9333333 15.0484848,23.7151515 10.2424242,23.7151515 C5.43636364,23.7151515 2.6,21.1939394 1.4969697,17.7272727 C0.551515152,17.0969697 0.393939394,17.0969697 0.393939394,17.0969697 C0.393939394,17.0969697 0.236363636,20.8787879 2.44242424,23.3212121 C3.7030303,24.8181818 6.61818182,25.8424242 9.69090909,25.8424242"/></g><path fill="#2646FF" d="M28 567.302954L25.5625 569.605759C25.5625 569.605759 25.5625 569.397088 25.5625 569.989597 25.5625 570.410504 25.4908471 570.812542 25.3869235 571.202917 25.3301824 574.371011 24.2619647 578.571983 19.875 581.887832 11.2453706 588.41018 2 582.655508 2 582.655508 9.3125 582.655508 9.3125 580.352554 9.3125 580.352554 7.6875 580.352554 4.4375 577.282073 4.4375 577.282073 5.25 578.049675 6.875 577.282073 6.875 577.282073 2.81242353 574.979194 2.81242353 572.676314 2.81242353 572.676314 3.625 573.443916 5.25 572.676314 5.25 572.676314 1.1875 569.605759 3.625 565.767602 3.625 565.767602 4.4375 569.605759 15 571.141036 15 571.141036L15.1344353 571.077522C15.0515412 570.72637 15 569.980534 15 569.605759 15 566.850252 17.3643941 565 20.2812882 565 21.8866353 565 23.3072294 565.691235 24.2757294 566.759326L24.75 566.535352 27.1875 565 25.5625 568.070555 28 567.302954 28 567.302954zM16.25 704L16.25 696.09212 14 696.09212 14 693.216528 16.25 693.216528 16.25 690.778241C16.25 688.862234 17.819075 687 20.79605 687 22.001375 687 23 687.11071 23 687.11071L22.25 689.776457C22.25 689.776457 21.8348 689.768045 20.842925 689.768045 19.769375 689.768045 19.25 690.242231 19.25 691.029352L19.25 693.216528 22.25 693.216528 21.5 696.09212 19.25 696.09212 19.25 704 16.25 704 16.25 704zM26 686.933333C26 685.313253 24.6867467 684 23.0666667 684L6.93333333 684C5.31325333 684 4 685.313253 4 686.933333L4 703.066667C4 704.686747 5.31325333 706 6.93333333 706L23.0666667 706C24.6867467 706 26 704.686747 26 703.066667L26 686.933333zM29 654.07675C29 652.376875 27.62525 651.002125 25.925375 651.002125 25.135625 651.002125 24.4145 651.3025 23.87 651.791875 21.80225 650.44525 19.119125 649.654375 16.24925 649.532875L17.827625 644.5525 22.116125 645.5605C22.129625 646.9465 23.26025 648.077125 24.647375 648.077125 26.05025 648.077125 27.178625 646.933 27.178625 645.532375 27.178625 644.143 26.05025 643 24.647375 643 23.612375 643 22.712375 643.626625 22.320875 644.52325L17.598125 643.408375C17.325875 643.354375 17.053625 643.504 16.9715 643.76275L15.147875 649.516C12.1115 649.57225 9.2675 650.362 7.088375 651.751375 6.545 651.289 5.83625 651.002125 5.074625 651.002125 3.37475 651.002125 2 652.378 2 654.07675 2 655.166875 2.586125 656.134375 3.443375 656.676625 3.40175 656.978125 3.373625 657.27625 3.373625 657.574375 3.373625 659.7805 4.65275 661.82125 6.993875 663.34675 9.254 664.8295 12.261125 665.645125 15.444875 665.645125 18.630875 665.645125 21.623375 664.8295 23.898125 663.34675 26.224625 661.82125 27.51725 659.7805 27.51725 657.574375 27.51725 657.302125 27.491375 657.018625 27.448625 656.74525 28.373375 656.215375 29 655.220875 29 654.07675L29 654.07675zM9.554375 656.11975C9.554375 655.087 10.424 654.226375 11.446625 654.226375 12.465875 654.226375 13.309625 655.085875 13.309625 656.11975 13.309625 657.140125 12.465875 657.970375 11.446625 657.970375 10.424 657.970375 9.554375 657.139 9.554375 656.11975L9.554375 656.11975zM19.854875 661.4275C18.943625 662.33875 17.528375 662.774125 15.5135 662.774125L15.487625 662.774125C13.47275 662.774125 12.056375 662.33875 11.14625 661.4275 10.9415 661.22275 10.9415 660.881875 11.14625 660.6805 11.351 660.472375 11.675 660.472375 11.882 660.6805 12.587375 661.385875 13.7585 661.725625 15.487625 661.725625L15.5135 661.725625C17.23025 661.725625 18.41375 661.385875 19.119125 660.6805 19.323875 660.472375 19.650125 660.472375 19.854875 660.6805 20.059625 660.881875 20.059625 661.22275 19.854875 661.4275L19.854875 661.4275zM19.582625 657.970375C18.56225 657.970375 17.690375 657.140125 17.690375 656.11975 17.690375 655.087 18.561125 654.226375 19.582625 654.226375 20.601875 654.226375 21.445625 655.085875 21.445625 656.11975 21.445625 657.137875 20.601875 657.970375 19.582625 657.970375L19.582625 657.970375zM1.02912321 615.412318C1.1235004 609.765727 6.31461902 604.82081 11.9612102 605.009191 14.666814 604.883479 17.2101488 606.06077 19.2823437 607.714422 18.3978839 608.719371 17.4820894 609.68739 16.5036255 610.59274 14.0125152 608.871196 10.4698267 608.379166 7.97871647 610.367802 4.41513813 612.832426 4.25286904 618.651732 7.68066359 621.304738 11.014081 624.329657 17.3145979 622.827829 18.2356148 618.196259 16.1477526 618.164924 14.0542949 618.196259 11.9664326 618.128367 11.9612102 616.882812 11.9559877 615.637257 11.9612102 614.392075 15.4516742 614.38163 18.9421381 614.376034 22.4378246 614.40252 22.6470958 617.333062 22.2598881 620.451986 20.4596339 622.874831 17.7331402 626.710723 12.2596361 627.830566 7.98916137 626.187359 3.70339235 624.554596.668027862 620.027848 1.02912321 615.412318zM24.5762327 605.246666L27.0289966 605.246666C27.0331105 606.067094 27.0372244 606.891637 27.0454522 607.711771 27.8658807 607.720293 28.6904231 607.720293 29.5105577 607.728521L29.5105577 610.181285C28.6904231 610.189512 27.8699946 610.193626 27.0454522 610.201854 27.0372244 611.026103 27.0331105 611.846531 27.0289966 612.66696L24.5721188 612.66696C24.563891 611.846531 24.563891 611.026103 24.5556632 610.205968 23.7352347 610.19774 22.9109862 610.189512 22.0905577 610.181285L22.0905577 607.728521C22.9109862 607.720293 23.7311208 607.716179 24.5556632 607.711771 24.5597771 606.887523 24.5680049 606.067094 24.5762327 605.246666z"/><g stroke="#2646FF" transform="translate(2 242)"><path d="M0.5,24 C0.5,23.1715729 1.17955446,22.5 1.99554521,22.5 L11.0044548,22.5 C11.8304216,22.5 12.5,23.1657972 12.5,24 L12.5,25.5 L0.5,25.5 L0.5,24 Z"/><g transform="translate(2.364)"><rect width="7.8" height="8.351" x="3.54" y="4.457" transform="rotate(30.001 7.44 8.633)"/><rect width="13.394" height="2.442" x="9.909" y="12.806" transform="rotate(30.001 16.606 14.027)"/><rect width="9.06" height="2.915" x=".138" y="12.13" transform="rotate(30.001 4.668 13.587)"/><rect width="9.06" height="2.915" x="5.713" y="2.33" transform="rotate(30.001 10.243 3.788)"/></g></g><g stroke="#2646FF" transform="translate(2 202)"><path d="M13.24375,5.6875 C9.75,5.6875 9.425,3.4125 9.66875,1.95 C9.9125,0.4875 7.88125,-7.07212067e-14 6.58125,1.38125 C5.28125,2.7625 2.7625,4.3875 0.65,3.81875 C1.1375,6.41875 4.46875,8.69375 8.20625,9.5875 C11.94375,10.5625 11.94375,7.3125 9.50625,7.55625 C7.06875,7.71875 7.3125,11.5375 9.34375,12.91875 C11.375,14.21875 13.1625,14.1375 13.1625,14.1375"/><circle cx="13.325" cy="1.95" r="1.95"/><path d="M13.325,3.9 L13.325,26.08125"/><ellipse cx="13.325" cy="16.819" rx="3.9" ry="2.763"/><ellipse cx="13.325" cy="21.613" rx="2.844" ry="2.031"/><path d="M2.19375 6.41875C3.65625 6.74375 5.76875 5.85 6.9875 4.7125M4.55 8.20625C5.85 8.2875 7.475 7.06875 8.04375 6.5M13.325 5.6875C16.81875 5.6875 17.14375 3.4125 16.9 1.95 16.65625.4875 18.6875-7.07212067e-14 19.9875 1.38125 21.2875 2.7625 23.80625 4.3875 25.91875 3.81875 25.43125 6.41875 22.1 8.69375 18.3625 9.5875 14.625 10.5625 14.625 7.3125 17.0625 7.55625 19.5 7.71875 19.25625 11.5375 17.225 12.91875 15.19375 14.21875 13.40625 14.1375 13.40625 14.1375M24.375 6.41875C22.9125 6.74375 20.8 5.85 19.58125 4.7125M22.01875 8.20625C20.71875 8.2875 19.09375 7.06875 18.525 6.5"/></g><g stroke="#2646FF" transform="translate(6.5 281.5)"><path d="M17,21.875 C17,23.59375 15.6090909,25 13.9090909,25 L3.09090909,25 C1.39090909,25 0,23.59375 0,21.875 L0,3.125 C0,1.40625 1.39090909,0 3.09090909,0 L13.9090909,0 C15.6090909,0 17,1.40625 17,3.125 L17,21.875 L17,21.875 Z"/><path d="M15,17.8409091 C15,18.4590909 14.43125,19 13.78125,19 L3.21875,19 C2.56875,19 2,18.4590909 2,17.8409091 L2,3.15909091 C2,2.54090909 2.56875,2 3.21875,2 L13.78125,2 C14.43125,2 15,2.54090909 15,3.15909091 L15,17.8409091 L15,17.8409091 Z"/><circle cx="8.5" cy="22.5" r="1"/></g><g stroke="#2646FF" transform="translate(1.5 323.5)"><polyline points="22 9 22 24 4 24 4 9"/><polyline points="0 12 13 0 26 12"/><rect width="6" height="9" x="10" y="15"/></g><g stroke="#2646FF" transform="translate(1.5 364.5)"><path d="M23 3L15 6 7 0 4 1 9 8 6 9 3 8 1 8 6 14 24 7C25.6910068 6.63583815 26.310217 5.26011561 26 4 25.5362042 2.83236994 24.2203826 2.1849711 23 3L23 3zM.5 21L26 21"/></g><g stroke="#2646FF" transform="translate(2 4)"><ellipse cx="16.553" cy="8.528" rx="2.519" ry="6.906" transform="rotate(-30.001 16.553 8.528)"/><path d="M12.8375,2.925 L0.8125,15.4375 C0.4875,15.68125 0.65,16.575 1.21875,17.55 C1.7875,18.525 2.51875,19.175 2.84375,18.93125 L19.58125,14.7875"/><path d="M11.05 16.9L11.45625 17.63125C11.78125 18.2 11.45625 18.93125 10.80625 19.09375L8.53125 19.6625C7.9625 19.825 7.3125 19.58125 7.06875 19.0125L6.5 17.95625M20.475 6.3375L23.64375 4.55M18.44375 2.84375L21.125.1625M22.34375 9.50625L25.91875 8.53125"/></g><g stroke="#2646FF" transform="translate(2.5 49.5)"><g transform="translate(5 5)"><path d="M2,0 L10,0"/><circle cx="2" cy="5" r="2"/><circle cx="15" cy="5" r="2"/></g><path d="M18 10L10 10M5.09545671 9.92307692L2.00064775 9.92307692C1.19010254 9.92307692.453243269 9.30769231.379557341 8.46153846L.011127703 6.15384615C-.0625582246 5.53846154.232185486 5 .821672907 4.84615385L3.32699444 4.07692308 5.39020042.692307692C5.6112582.307692308 6.05337377 0 6.56917526 0L13.4956525 0C13.937768 0 14.4535695.153846154 14.7483132.461538462L19.1694689 4.38461538 24.106426 5C24.6959134 5.07692308 25.0643431 5.61538462 24.9906572 6.23076923L24.6222275 8.84615385C24.5485416 9.53846154 23.9590542 10 23.3695668 10L21.6011045 10"/></g><g stroke="#2646FF" transform="translate(9.5 82.5)"><path d="M12 0L12 0C12 2.42236025 10.2 4.68322981 7.2 5.97515528L4.8 7.02484472C1.8 8.23602484 0 10.4968944 0 13L0 13M7 19C10.1034483 20.3521127 12 22.5492958 12 25L12 25M0 13L0 13C0 15.25 1.84615385 17.35 4.92307692 18.55L6 19"/><g><path d="M7 7C10.1578947 8.35211268 12 10.5492958 12 13L12 13M0 0L0 0C0 2.625 1.82278481 5.075 4.86075949 6.475L6 7M12 13L12 13C12 15.4223602 10.2 17.6832298 7.2 18.9751553L4.8 20.0248447C1.8 21.2360248 0 23.4968944 0 26L0 26"/></g><g transform="translate(1 11)"><path d="M-1.38911105e-12 0L11 0M-1.38911105e-12 4L11 4"/></g><g transform="translate(1 3)"><path d="M-1.38911105e-12 0L11 0M-1.38911105e-12 20L11 20"/></g></g><g stroke="#2646FF" transform="translate(1.5 122.5)"><polygon points="13.461 13 1 6.541 13.461 0 26 6.541"/><polyline points="26 19 13.461 25 1 19"/><path d="M26 7L26 19M14 13L14 25M1 7L1 19"/><g transform="translate(1)"><path d="M13 9L13 0M25 19L16 15M-2.77555756e-17 19L9 15"/></g></g><g stroke="#2646FF" transform="translate(2.5 164.5)"><path d="M3.5,21 C3.65168539,21 3.17977528,20.5263158 2.5,20 L1.5,8 L23.5,8 L22.5,20 C21.8988764,20.6052632 21.4269663,21 21.5,21 L3.5,21 Z"/><g transform="translate(5.515)"><path d="M.45945786 3.93469246L5.2.0787878788M14.0493015 3.94042976L9.37575758.0787878788"/></g><path d="M24,8 L1,8 C0.390625,8 0,7.64285714 0,7 L0,5 C0,4.35714286 0.390625,4 1,4 L24,4 C24.609375,4 25,4.35714286 25,5 L25,7 C25,7.57142857 24.53125,8 24,8 L24,8 Z"/><g transform="translate(4.09 11.818)"><path d="M5.90909091 0L5.90909091 5.67272727M1.90909091 0L1.90909091 5.67272727M10.9090909 0L10.9090909 5.67272727M14.9090909 0L14.9090909 5.67272727"/></g></g><g stroke="#2646FF" transform="translate(1.5 442.5)"><g transform="translate(5)"><path d="M12.137931 23C12.137931 23.5 10.6206897 18.54375 16 15.95625 16 15.95625 8 8.19375 8 1.38777878e-17M3.86206897 23C3.86206897 23.5 5.37931034 18.54375 2.84217094e-14 15.95625 2.84217094e-14 15.95625 8 8.19375 8 1.38777878e-17M8 0L8 14"/><circle cx="8" cy="15.5" r="1.5"/><path d="M15.5,24 L0,24"/></g><path d="M1.5,12 C1.5,5.4 6.675,0 13,0 C19.325,0 24.5,5.4 24.5,12"/><rect width="3" height="3" y="12"/><rect width="3" height="3" x="23" y="12"/></g><g stroke="#2646FF" transform="translate(1 485)"><polyline points="18.78 13.317 27.385 16.39 14 21.171 .546 16.39 9.151 13.317"/><polyline points="19.805 7.512 27.385 10.244 14 15.024 .546 10.244 8.127 7.512"/><polygon points="14 9.629 .546 4.849 14 0 27.385 4.849"/></g><g stroke="#2646FF" transform="translate(3.5 521.5)"><rect width="24" height="17" y="2"/><g transform="translate(7 19)"><path d="M1 0L1.33726363e-13 7M5 0L5 7M9 0L10 7"/></g><path d="M12,1 L12,0"/><g transform="translate(4 6)"><polyline points="0 10 5.833 3.966 9 7.241 16 0"/><polyline points="11 0 16 0 16 5"/></g></g></g></svg>